<svg width="135" height="36" viewBox="0 0 135 36" fill="none" xmlns="http://www.w3.org/2000/svg">
<path d="M18 0C16.5964 0 15.2303 0.160642 13.9197 0.465194C7.25502 2.00937 2.00937 7.25502 0.465194 13.919C0.160642 15.2303 0 16.5964 0 18C0 27.9411 8.0589 36 18 36C19.4036 36 20.7697 35.8394 22.081 35.5348C28.745 33.9906 33.9906 28.7456 35.5355 22.0823C35.84 20.7711 36.0007 19.4043 36.0007 18C36.0007 8.0589 27.9411 0 18 0ZM18 29.2724C16.6714 29.2724 15.3969 29.0428 14.2135 28.6205C11.0341 27.4866 8.51406 24.9665 7.38019 21.7871C6.95783 20.6037 6.72825 19.3286 6.72825 18C6.72825 11.7744 11.7744 6.72758 18 6.72758C19.3286 6.72758 20.6031 6.95716 21.7865 7.37952C24.9659 8.51339 27.4866 11.0335 28.6205 14.2129C29.0428 15.3963 29.2724 16.6714 29.2724 18C29.2724 24.2256 24.2256 29.2724 18 29.2724Z" fill="url(#paint0_linear_4009_465)"/>
<path d="M18 10.7349C13.9879 10.7349 10.7349 13.9879 10.7349 17.9999C10.7349 22.012 13.9879 25.265 18 25.265C22.012 25.265 25.265 22.012 25.265 17.9999C25.265 13.9879 22.0127 10.7349 18 10.7349ZM18 22.3928C15.5743 22.3928 13.6071 20.4263 13.6071 17.9999C13.6071 15.5736 15.5743 13.607 18 13.607C20.4257 13.607 22.3929 15.5736 22.3929 17.9999C22.3929 20.4263 20.4264 22.3928 18 22.3928Z" fill="#00FF38"/>
<path d="M21.7865 7.37966C20.6031 6.9573 19.3286 6.72772 18 6.72772C11.7744 6.72772 6.72823 11.7746 6.72823 18.0001C6.72823 19.3288 6.95782 20.6039 7.38017 21.7873C5.94175 21.2438 4.59302 20.393 3.43506 19.2351C1.91565 17.7157 0.925688 15.8676 0.465179 13.9191C2.00936 7.25516 7.25501 2.00951 13.9197 0.465332C15.8675 0.925841 17.7155 1.9158 19.2349 3.43521C20.3922 4.59251 21.243 5.94123 21.7865 7.37966Z" fill="url(#paint1_linear_4009_465)"/>
<path d="M35.5355 22.0824C33.9906 28.7457 28.745 33.9907 22.081 35.5348C20.1332 35.0743 18.2851 34.0844 16.7657 32.565C15.6077 31.407 14.757 30.0583 14.2135 28.6205C15.3969 29.0429 16.6713 29.2725 18 29.2725C24.2256 29.2725 29.2724 24.2256 29.2724 18C29.2724 16.6714 29.0428 15.3963 28.6205 14.2129C30.0582 14.7564 31.4069 15.6071 32.5649 16.7651C34.0843 18.2845 35.0749 20.1339 35.5355 22.0824Z" fill="url(#paint2_linear_4009_465)"/>
<path d="M9.09638 30.6713C11.1769 30.6713 12.8635 28.9848 12.8635 26.9043C12.8635 24.8238 11.1769 23.1372 9.09638 23.1372C7.01589 23.1372 5.32932 24.8238 5.32932 26.9043C5.32932 28.9848 7.01589 30.6713 9.09638 30.6713Z" fill="url(#paint3_linear_4009_465)"/>
<path d="M26.9371 12.8305C29.0175 12.8305 30.7041 11.1439 30.7041 9.06346C30.7041 6.98296 29.0175 5.29639 26.9371 5.29639C24.8566 5.29639 23.17 6.98296 23.17 9.06346C23.17 11.1439 24.8566 12.8305 26.9371 12.8305Z" fill="url(#paint4_linear_4009_465)"/>
<path d="M49.3207 24V13.18H51.4807V15.52L51.2007 15.16C51.4273 14.4267 51.8407 13.8733 52.4407 13.5C53.0407 13.1267 53.7273 12.94 54.5007 12.94C55.3673 12.94 56.134 13.1733 56.8007 13.64C57.4807 14.0933 57.934 14.7 58.1607 15.46L57.5207 15.52C57.8407 14.6533 58.3273 14.0067 58.9807 13.58C59.6473 13.1533 60.4073 12.94 61.2607 12.94C62.0073 12.94 62.6807 13.1133 63.2807 13.46C63.894 13.8067 64.3807 14.2867 64.7407 14.9C65.1007 15.5133 65.2807 16.2133 65.2807 17V24H63.0207V17.62C63.0207 17.0733 62.9207 16.6133 62.7207 16.24C62.534 15.8533 62.2673 15.56 61.9207 15.36C61.5873 15.1467 61.194 15.04 60.7407 15.04C60.2873 15.04 59.8873 15.1467 59.5407 15.36C59.194 15.56 58.9207 15.8533 58.7207 16.24C58.5207 16.6267 58.4207 17.0867 58.4207 17.62V24H56.1807V17.62C56.1807 17.0733 56.0807 16.6133 55.8807 16.24C55.694 15.8533 55.4273 15.56 55.0807 15.36C54.7473 15.1467 54.3473 15.04 53.8807 15.04C53.4273 15.04 53.0273 15.1467 52.6807 15.36C52.334 15.56 52.0607 15.8533 51.8607 16.24C51.674 16.6267 51.5807 17.0867 51.5807 17.62V24H49.3207ZM68.4643 28.4C68.1976 28.4 67.9309 28.3733 67.6643 28.32C67.4109 28.28 67.1776 28.2133 66.9643 28.12V26.18C67.1243 26.22 67.3176 26.2533 67.5443 26.28C67.7709 26.32 67.9909 26.34 68.2043 26.34C68.8309 26.34 69.2909 26.2 69.5843 25.92C69.8909 25.6533 70.1643 25.24 70.4043 24.68L71.1243 23.04L71.0843 24.94L66.4043 13.18H68.8243L72.2843 22.2H71.4643L74.9043 13.18H77.3443L72.5643 25.18C72.3109 25.82 71.9909 26.38 71.6043 26.86C71.2309 27.3533 70.7843 27.7333 70.2643 28C69.7576 28.2667 69.1576 28.4 68.4643 28.4ZM79.0902 24V21.4H81.3902V24H79.0902ZM90.2438 24.24C89.2038 24.24 88.2505 23.9933 87.3838 23.5C86.5305 23.0067 85.8505 22.3333 85.3438 21.48C84.8371 20.6267 84.5838 19.66 84.5838 18.58C84.5838 17.4867 84.8371 16.52 85.3438 15.68C85.8505 14.8267 86.5305 14.16 87.3838 13.68C88.2371 13.1867 89.1905 12.94 90.2438 12.94C91.3105 12.94 92.2638 13.1867 93.1038 13.68C93.9571 14.16 94.6305 14.8267 95.1238 15.68C95.6305 16.52 95.8838 17.4867 95.8838 18.58C95.8838 19.6733 95.6305 20.6467 95.1238 21.5C94.6171 22.3533 93.9371 23.0267 93.0838 23.52C92.2305 24 91.2838 24.24 90.2438 24.24ZM90.2438 22.14C90.8838 22.14 91.4505 21.9867 91.9438 21.68C92.4371 21.3733 92.8238 20.9533 93.1038 20.42C93.3971 19.8733 93.5438 19.26 93.5438 18.58C93.5438 17.9 93.3971 17.2933 93.1038 16.76C92.8238 16.2267 92.4371 15.8067 91.9438 15.5C91.4505 15.1933 90.8838 15.04 90.2438 15.04C89.6171 15.04 89.0505 15.1933 88.5438 15.5C88.0505 15.8067 87.6571 16.2267 87.3638 16.76C87.0838 17.2933 86.9438 17.9 86.9438 18.58C86.9438 19.26 87.0838 19.8733 87.3638 20.42C87.6571 20.9533 88.0505 21.3733 88.5438 21.68C89.0505 21.9867 89.6171 22.14 90.2438 22.14ZM98.0902 24V13.18H100.25V15.36L100.05 15.04C100.29 14.3333 100.677 13.8267 101.21 13.52C101.744 13.2 102.384 13.04 103.13 13.04H103.79V15.1H102.85C102.104 15.1 101.497 15.3333 101.03 15.8C100.577 16.2533 100.35 16.9067 100.35 17.76V24H98.0902ZM111.116 24.24C110.276 24.24 109.51 24.0667 108.816 23.72C108.136 23.3733 107.61 22.8733 107.236 22.22L107.496 21.8V24H105.336V8.86H107.596V15.42L107.236 14.9C107.636 14.2867 108.17 13.8067 108.836 13.46C109.503 13.1133 110.263 12.94 111.116 12.94C112.143 12.94 113.063 13.1867 113.876 13.68C114.703 14.1733 115.35 14.8467 115.816 15.7C116.296 16.5533 116.536 17.5133 116.536 18.58C116.536 19.6467 116.296 20.6067 115.816 21.46C115.35 22.3133 114.71 22.9933 113.896 23.5C113.083 23.9933 112.156 24.24 111.116 24.24ZM110.896 22.14C111.536 22.14 112.103 21.9867 112.596 21.68C113.09 21.3733 113.476 20.9533 113.756 20.42C114.05 19.8733 114.196 19.26 114.196 18.58C114.196 17.9 114.05 17.2933 113.756 16.76C113.476 16.2267 113.09 15.8067 112.596 15.5C112.103 15.1933 111.536 15.04 110.896 15.04C110.27 15.04 109.703 15.1933 109.196 15.5C108.703 15.8067 108.31 16.2267 108.016 16.76C107.736 17.2933 107.596 17.9 107.596 18.58C107.596 19.26 107.736 19.8733 108.016 20.42C108.31 20.9533 108.703 21.3733 109.196 21.68C109.703 21.9867 110.27 22.14 110.896 22.14ZM118.735 24V13.18H120.995V24H118.735ZM118.735 11.7V9.1H120.995V11.7H118.735ZM128.317 24.12C127.184 24.12 126.304 23.8 125.677 23.16C125.05 22.52 124.737 21.62 124.737 20.46V15.22H122.837V13.18H123.137C123.644 13.18 124.037 13.0333 124.317 12.74C124.597 12.4467 124.737 12.0467 124.737 11.54V10.7H126.997V13.18H129.457V15.22H126.997V20.36C126.997 20.7333 127.057 21.0533 127.177 21.32C127.297 21.5733 127.49 21.7733 127.757 21.92C128.024 22.0533 128.37 22.12 128.797 22.12C128.904 22.12 129.024 22.1133 129.157 22.1C129.29 22.0867 129.417 22.0733 129.537 22.06V24C129.35 24.0267 129.144 24.0533 128.917 24.08C128.69 24.1067 128.49 24.12 128.317 24.12Z" fill="#E1E1E6"/>
<defs>
<linearGradient id="paint0_linear_4009_465" x1="30.5556" y1="6.13588" x2="5.83534" y2="29.4953" gradientUnits="userSpaceOnUse">
<stop stop-color="#18D814"/>
<stop offset="0.23" stop-color="#1CC818"/>
<stop offset="1" stop-color="#00FFE0"/>
</linearGradient>
<linearGradient id="paint1_linear_4009_465" x1="16.8608" y1="3.05168" x2="2.79985" y2="17.037" gradientUnits="userSpaceOnUse">
<stop stop-color="#10C700"/>
<stop offset="1" stop-color="#00FFA3"/>
</linearGradient>
<linearGradient id="paint2_linear_4009_465" x1="32.9424" y1="19.2196" x2="18.8815" y2="33.2055" gradientUnits="userSpaceOnUse">
<stop stop-color="#0ACC1E"/>
<stop offset="1" stop-color="#00FFD1"/>
</linearGradient>
<linearGradient id="paint3_linear_4009_465" x1="11.8467" y1="24.3306" x2="6.34538" y2="29.4779" gradientUnits="userSpaceOnUse">
<stop stop-color="#00FFF0"/>
<stop offset="1" stop-color="#00FF1A"/>
</linearGradient>
<linearGradient id="paint4_linear_4009_465" x1="29.2269" y1="6.92022" x2="25.4712" y2="10.4349" gradientUnits="userSpaceOnUse">
<stop stop-color="#00FFF0"/>
<stop offset="0.97" stop-color="#00FF38"/>
<stop offset="1" stop-color="#00FF47"/>
</linearGradient>
</defs>
</svg>
